<mxfile host="Electron" agent="Mozilla/5.0 (Windows NT 10.0; Win64; x64) AppleWebKit/537.36 (KHTML, like Gecko) draw.io/27.0.9 Chrome/134.0.6998.205 Electron/35.4.0 Safari/537.36" version="27.0.9">
  <diagram name="Pagina-1" id="mB7OYkjF43fkioNrDc4Y">
    <mxGraphModel dx="768" dy="906" grid="1" gridSize="10" guides="1" tooltips="1" connect="1" arrows="1" fold="1" page="1" pageScale="1" pageWidth="827" pageHeight="1169" math="0" shadow="0">
      <root>
        <mxCell id="0" />
        <mxCell id="1" parent="0" />
        <mxCell id="xBQK18J8VFEKR6VTrgml-5" value="&lt;b&gt;Corso&lt;/b&gt;" style="swimlane;fontStyle=0;childLayout=stackLayout;horizontal=1;startSize=26;fillColor=none;horizontalStack=0;resizeParent=1;resizeParentMax=0;resizeLast=0;collapsible=1;marginBottom=0;whiteSpace=wrap;html=1;" parent="1" vertex="1">
          <mxGeometry x="343" y="70" width="160" height="182" as="geometry" />
        </mxCell>
        <mxCell id="xBQK18J8VFEKR6VTrgml-6" value="+ IDCorso: Integer" style="text;strokeColor=none;fillColor=none;align=left;verticalAlign=top;spacingLeft=4;spacingRight=4;overflow=hidden;rotatable=0;points=[[0,0.5],[1,0.5]];portConstraint=eastwest;whiteSpace=wrap;html=1;" parent="xBQK18J8VFEKR6VTrgml-5" vertex="1">
          <mxGeometry y="26" width="160" height="26" as="geometry" />
        </mxCell>
        <mxCell id="xBQK18J8VFEKR6VTrgml-7" value="+ dataInizio: Date" style="text;strokeColor=none;fillColor=none;align=left;verticalAlign=top;spacingLeft=4;spacingRight=4;overflow=hidden;rotatable=0;points=[[0,0.5],[1,0.5]];portConstraint=eastwest;whiteSpace=wrap;html=1;" parent="xBQK18J8VFEKR6VTrgml-5" vertex="1">
          <mxGeometry y="52" width="160" height="26" as="geometry" />
        </mxCell>
        <mxCell id="xBQK18J8VFEKR6VTrgml-8" value="+ numeroSessioni: Integer" style="text;strokeColor=none;fillColor=none;align=left;verticalAlign=top;spacingLeft=4;spacingRight=4;overflow=hidden;rotatable=0;points=[[0,0.5],[1,0.5]];portConstraint=eastwest;whiteSpace=wrap;html=1;" parent="xBQK18J8VFEKR6VTrgml-5" vertex="1">
          <mxGeometry y="78" width="160" height="26" as="geometry" />
        </mxCell>
        <mxCell id="xBQK18J8VFEKR6VTrgml-9" value="+ IDFrequenza: Integer" style="text;strokeColor=none;fillColor=none;align=left;verticalAlign=top;spacingLeft=4;spacingRight=4;overflow=hidden;rotatable=0;points=[[0,0.5],[1,0.5]];portConstraint=eastwest;whiteSpace=wrap;html=1;" parent="xBQK18J8VFEKR6VTrgml-5" vertex="1">
          <mxGeometry y="104" width="160" height="26" as="geometry" />
        </mxCell>
        <mxCell id="xBQK18J8VFEKR6VTrgml-10" value="+ IDCategoria: Integer" style="text;strokeColor=none;fillColor=none;align=left;verticalAlign=top;spacingLeft=4;spacingRight=4;overflow=hidden;rotatable=0;points=[[0,0.5],[1,0.5]];portConstraint=eastwest;whiteSpace=wrap;html=1;" parent="xBQK18J8VFEKR6VTrgml-5" vertex="1">
          <mxGeometry y="130" width="160" height="26" as="geometry" />
        </mxCell>
        <mxCell id="xBQK18J8VFEKR6VTrgml-11" value="+ IDChef: Integer" style="text;strokeColor=none;fillColor=none;align=left;verticalAlign=top;spacingLeft=4;spacingRight=4;overflow=hidden;rotatable=0;points=[[0,0.5],[1,0.5]];portConstraint=eastwest;whiteSpace=wrap;html=1;" parent="xBQK18J8VFEKR6VTrgml-5" vertex="1">
          <mxGeometry y="156" width="160" height="26" as="geometry" />
        </mxCell>
        <mxCell id="xBQK18J8VFEKR6VTrgml-12" value="&lt;b&gt;Chef&lt;/b&gt;" style="swimlane;fontStyle=0;childLayout=stackLayout;horizontal=1;startSize=26;fillColor=none;horizontalStack=0;resizeParent=1;resizeParentMax=0;resizeLast=0;collapsible=1;marginBottom=0;whiteSpace=wrap;html=1;" parent="1" vertex="1">
          <mxGeometry x="49" y="83" width="140" height="156" as="geometry" />
        </mxCell>
        <mxCell id="xBQK18J8VFEKR6VTrgml-13" value="+ IDChef: Integer" style="text;strokeColor=none;fillColor=none;align=left;verticalAlign=top;spacingLeft=4;spacingRight=4;overflow=hidden;rotatable=0;points=[[0,0.5],[1,0.5]];portConstraint=eastwest;whiteSpace=wrap;html=1;" parent="xBQK18J8VFEKR6VTrgml-12" vertex="1">
          <mxGeometry y="26" width="140" height="26" as="geometry" />
        </mxCell>
        <mxCell id="xBQK18J8VFEKR6VTrgml-14" value="+ nome: String" style="text;strokeColor=none;fillColor=none;align=left;verticalAlign=top;spacingLeft=4;spacingRight=4;overflow=hidden;rotatable=0;points=[[0,0.5],[1,0.5]];portConstraint=eastwest;whiteSpace=wrap;html=1;" parent="xBQK18J8VFEKR6VTrgml-12" vertex="1">
          <mxGeometry y="52" width="140" height="26" as="geometry" />
        </mxCell>
        <mxCell id="xBQK18J8VFEKR6VTrgml-15" value="+ cognome: String" style="text;strokeColor=none;fillColor=none;align=left;verticalAlign=top;spacingLeft=4;spacingRight=4;overflow=hidden;rotatable=0;points=[[0,0.5],[1,0.5]];portConstraint=eastwest;whiteSpace=wrap;html=1;" parent="xBQK18J8VFEKR6VTrgml-12" vertex="1">
          <mxGeometry y="78" width="140" height="26" as="geometry" />
        </mxCell>
        <mxCell id="xBQK18J8VFEKR6VTrgml-17" value="+ username: String" style="text;strokeColor=none;fillColor=none;align=left;verticalAlign=top;spacingLeft=4;spacingRight=4;overflow=hidden;rotatable=0;points=[[0,0.5],[1,0.5]];portConstraint=eastwest;whiteSpace=wrap;html=1;" parent="xBQK18J8VFEKR6VTrgml-12" vertex="1">
          <mxGeometry y="104" width="140" height="26" as="geometry" />
        </mxCell>
        <mxCell id="xBQK18J8VFEKR6VTrgml-16" value="+ password: String" style="text;strokeColor=none;fillColor=none;align=left;verticalAlign=top;spacingLeft=4;spacingRight=4;overflow=hidden;rotatable=0;points=[[0,0.5],[1,0.5]];portConstraint=eastwest;whiteSpace=wrap;html=1;" parent="xBQK18J8VFEKR6VTrgml-12" vertex="1">
          <mxGeometry y="130" width="140" height="26" as="geometry" />
        </mxCell>
        <mxCell id="xBQK18J8VFEKR6VTrgml-19" value="" style="endArrow=none;html=1;rounded=0;" parent="1" source="xBQK18J8VFEKR6VTrgml-12" target="xBQK18J8VFEKR6VTrgml-5" edge="1">
          <mxGeometry width="50" height="50" relative="1" as="geometry">
            <mxPoint x="299" y="440" as="sourcePoint" />
            <mxPoint x="349" y="390" as="targetPoint" />
          </mxGeometry>
        </mxCell>
        <mxCell id="xBQK18J8VFEKR6VTrgml-24" value="1" style="text;html=1;align=center;verticalAlign=middle;resizable=0;points=[];autosize=1;strokeColor=none;fillColor=none;" parent="1" vertex="1">
          <mxGeometry x="189" y="160" width="30" height="30" as="geometry" />
        </mxCell>
        <mxCell id="xBQK18J8VFEKR6VTrgml-25" value="0..*" style="text;html=1;align=center;verticalAlign=middle;resizable=0;points=[];autosize=1;strokeColor=none;fillColor=none;" parent="1" vertex="1">
          <mxGeometry x="303" y="160" width="40" height="30" as="geometry" />
        </mxCell>
        <mxCell id="xBQK18J8VFEKR6VTrgml-26" value="&lt;b&gt;Categoria&lt;/b&gt;" style="swimlane;fontStyle=0;childLayout=stackLayout;horizontal=1;startSize=26;fillColor=none;horizontalStack=0;resizeParent=1;resizeParentMax=0;resizeLast=0;collapsible=1;marginBottom=0;whiteSpace=wrap;html=1;" parent="1" vertex="1">
          <mxGeometry x="639" y="70" width="140" height="78" as="geometry" />
        </mxCell>
        <mxCell id="xBQK18J8VFEKR6VTrgml-27" value="+ IDCategoria: Integer" style="text;strokeColor=none;fillColor=none;align=left;verticalAlign=top;spacingLeft=4;spacingRight=4;overflow=hidden;rotatable=0;points=[[0,0.5],[1,0.5]];portConstraint=eastwest;whiteSpace=wrap;html=1;" parent="xBQK18J8VFEKR6VTrgml-26" vertex="1">
          <mxGeometry y="26" width="140" height="26" as="geometry" />
        </mxCell>
        <mxCell id="xBQK18J8VFEKR6VTrgml-28" value="+ descrizione: String" style="text;strokeColor=none;fillColor=none;align=left;verticalAlign=top;spacingLeft=4;spacingRight=4;overflow=hidden;rotatable=0;points=[[0,0.5],[1,0.5]];portConstraint=eastwest;whiteSpace=wrap;html=1;" parent="xBQK18J8VFEKR6VTrgml-26" vertex="1">
          <mxGeometry y="52" width="140" height="26" as="geometry" />
        </mxCell>
        <mxCell id="xBQK18J8VFEKR6VTrgml-30" value="&lt;b&gt;FrequenzaSessioni&lt;/b&gt;" style="swimlane;fontStyle=0;childLayout=stackLayout;horizontal=1;startSize=26;fillColor=none;horizontalStack=0;resizeParent=1;resizeParentMax=0;resizeLast=0;collapsible=1;marginBottom=0;whiteSpace=wrap;html=1;" parent="1" vertex="1">
          <mxGeometry x="639" y="174" width="140" height="78" as="geometry" />
        </mxCell>
        <mxCell id="xBQK18J8VFEKR6VTrgml-31" value="+ IDFrequenza: Integer" style="text;strokeColor=none;fillColor=none;align=left;verticalAlign=top;spacingLeft=4;spacingRight=4;overflow=hidden;rotatable=0;points=[[0,0.5],[1,0.5]];portConstraint=eastwest;whiteSpace=wrap;html=1;" parent="xBQK18J8VFEKR6VTrgml-30" vertex="1">
          <mxGeometry y="26" width="140" height="26" as="geometry" />
        </mxCell>
        <mxCell id="xBQK18J8VFEKR6VTrgml-32" value="+ descrizione: String" style="text;strokeColor=none;fillColor=none;align=left;verticalAlign=top;spacingLeft=4;spacingRight=4;overflow=hidden;rotatable=0;points=[[0,0.5],[1,0.5]];portConstraint=eastwest;whiteSpace=wrap;html=1;" parent="xBQK18J8VFEKR6VTrgml-30" vertex="1">
          <mxGeometry y="52" width="140" height="26" as="geometry" />
        </mxCell>
        <mxCell id="xBQK18J8VFEKR6VTrgml-35" value="" style="endArrow=none;html=1;rounded=0;exitX=1;exitY=0.5;exitDx=0;exitDy=0;" parent="1" edge="1">
          <mxGeometry width="50" height="50" relative="1" as="geometry">
            <mxPoint x="503" y="219" as="sourcePoint" />
            <mxPoint x="639" y="219" as="targetPoint" />
          </mxGeometry>
        </mxCell>
        <mxCell id="xBQK18J8VFEKR6VTrgml-36" value="" style="endArrow=none;html=1;rounded=0;exitX=1;exitY=0.5;exitDx=0;exitDy=0;" parent="1" source="xBQK18J8VFEKR6VTrgml-6" target="xBQK18J8VFEKR6VTrgml-26" edge="1">
          <mxGeometry width="50" height="50" relative="1" as="geometry">
            <mxPoint x="499" y="440" as="sourcePoint" />
            <mxPoint x="549" y="390" as="targetPoint" />
          </mxGeometry>
        </mxCell>
        <mxCell id="xBQK18J8VFEKR6VTrgml-38" value="1" style="text;html=1;align=center;verticalAlign=middle;resizable=0;points=[];autosize=1;strokeColor=none;fillColor=none;" parent="1" vertex="1">
          <mxGeometry x="609" y="110" width="30" height="30" as="geometry" />
        </mxCell>
        <mxCell id="xBQK18J8VFEKR6VTrgml-39" value="0..*" style="text;html=1;align=center;verticalAlign=middle;resizable=0;points=[];autosize=1;strokeColor=none;fillColor=none;" parent="1" vertex="1">
          <mxGeometry x="503" y="220" width="40" height="30" as="geometry" />
        </mxCell>
        <mxCell id="xBQK18J8VFEKR6VTrgml-40" value="0..*&amp;nbsp;" style="text;html=1;align=center;verticalAlign=middle;resizable=0;points=[];autosize=1;strokeColor=none;fillColor=none;" parent="1" vertex="1">
          <mxGeometry x="503" y="110" width="40" height="30" as="geometry" />
        </mxCell>
        <mxCell id="xBQK18J8VFEKR6VTrgml-41" value="1" style="text;html=1;align=center;verticalAlign=middle;resizable=0;points=[];autosize=1;strokeColor=none;fillColor=none;" parent="1" vertex="1">
          <mxGeometry x="609" y="220" width="30" height="30" as="geometry" />
        </mxCell>
        <mxCell id="xBQK18J8VFEKR6VTrgml-80" style="edgeStyle=orthogonalEdgeStyle;rounded=0;orthogonalLoop=1;jettySize=auto;html=1;entryX=0;entryY=0.5;entryDx=0;entryDy=0;endArrow=none;exitX=0.5;exitY=0;exitDx=0;exitDy=0;" parent="1" source="xBQK18J8VFEKR6VTrgml-58" target="xBQK18J8VFEKR6VTrgml-11" edge="1">
          <mxGeometry relative="1" as="geometry">
            <mxPoint x="119" y="350" as="targetPoint" />
            <Array as="points">
              <mxPoint x="119" y="470" />
              <mxPoint x="119" y="280" />
              <mxPoint x="343" y="280" />
            </Array>
          </mxGeometry>
        </mxCell>
        <mxCell id="xBQK18J8VFEKR6VTrgml-58" value="&lt;b&gt;Utente&lt;/b&gt;" style="swimlane;fontStyle=0;childLayout=stackLayout;horizontal=1;startSize=26;fillColor=none;horizontalStack=0;resizeParent=1;resizeParentMax=0;resizeLast=0;collapsible=1;marginBottom=0;whiteSpace=wrap;html=1;" parent="1" vertex="1">
          <mxGeometry x="49" y="470" width="140" height="156" as="geometry" />
        </mxCell>
        <mxCell id="xBQK18J8VFEKR6VTrgml-59" value="+ IDUtente: Integer" style="text;strokeColor=none;fillColor=none;align=left;verticalAlign=top;spacingLeft=4;spacingRight=4;overflow=hidden;rotatable=0;points=[[0,0.5],[1,0.5]];portConstraint=eastwest;whiteSpace=wrap;html=1;" parent="xBQK18J8VFEKR6VTrgml-58" vertex="1">
          <mxGeometry y="26" width="140" height="26" as="geometry" />
        </mxCell>
        <mxCell id="xBQK18J8VFEKR6VTrgml-60" value="+ nome: String" style="text;strokeColor=none;fillColor=none;align=left;verticalAlign=top;spacingLeft=4;spacingRight=4;overflow=hidden;rotatable=0;points=[[0,0.5],[1,0.5]];portConstraint=eastwest;whiteSpace=wrap;html=1;" parent="xBQK18J8VFEKR6VTrgml-58" vertex="1">
          <mxGeometry y="52" width="140" height="26" as="geometry" />
        </mxCell>
        <mxCell id="xBQK18J8VFEKR6VTrgml-61" value="+ cognome: String" style="text;strokeColor=none;fillColor=none;align=left;verticalAlign=top;spacingLeft=4;spacingRight=4;overflow=hidden;rotatable=0;points=[[0,0.5],[1,0.5]];portConstraint=eastwest;whiteSpace=wrap;html=1;" parent="xBQK18J8VFEKR6VTrgml-58" vertex="1">
          <mxGeometry y="78" width="140" height="26" as="geometry" />
        </mxCell>
        <mxCell id="xBQK18J8VFEKR6VTrgml-79" value="+ username: String" style="text;strokeColor=none;fillColor=none;align=left;verticalAlign=top;spacingLeft=4;spacingRight=4;overflow=hidden;rotatable=0;points=[[0,0.5],[1,0.5]];portConstraint=eastwest;whiteSpace=wrap;html=1;" parent="xBQK18J8VFEKR6VTrgml-58" vertex="1">
          <mxGeometry y="104" width="140" height="26" as="geometry" />
        </mxCell>
        <mxCell id="xBQK18J8VFEKR6VTrgml-78" value="+ password: String" style="text;strokeColor=none;fillColor=none;align=left;verticalAlign=top;spacingLeft=4;spacingRight=4;overflow=hidden;rotatable=0;points=[[0,0.5],[1,0.5]];portConstraint=eastwest;whiteSpace=wrap;html=1;" parent="xBQK18J8VFEKR6VTrgml-58" vertex="1">
          <mxGeometry y="130" width="140" height="26" as="geometry" />
        </mxCell>
        <mxCell id="xBQK18J8VFEKR6VTrgml-88" style="edgeStyle=orthogonalEdgeStyle;rounded=0;orthogonalLoop=1;jettySize=auto;html=1;endArrow=none" parent="1" source="xBQK18J8VFEKR6VTrgml-62" target="xBQK18J8VFEKR6VTrgml-5" edge="1">
          <mxGeometry relative="1" as="geometry" />
        </mxCell>
        <mxCell id="xBQK18J8VFEKR6VTrgml-62" value="&lt;b&gt;Sessione&lt;/b&gt;" style="swimlane;fontStyle=0;childLayout=stackLayout;horizontal=1;startSize=26;fillColor=none;horizontalStack=0;resizeParent=1;resizeParentMax=0;resizeLast=0;collapsible=1;marginBottom=0;whiteSpace=wrap;html=1;" parent="1" vertex="1">
          <mxGeometry x="448" y="470" width="161" height="182" as="geometry" />
        </mxCell>
        <mxCell id="xBQK18J8VFEKR6VTrgml-64" value="+ IDSessione: Integer" style="text;strokeColor=none;fillColor=none;align=left;verticalAlign=top;spacingLeft=4;spacingRight=4;overflow=hidden;rotatable=0;points=[[0,0.5],[1,0.5]];portConstraint=eastwest;whiteSpace=wrap;html=1;" parent="xBQK18J8VFEKR6VTrgml-62" vertex="1">
          <mxGeometry y="26" width="161" height="26" as="geometry" />
        </mxCell>
        <mxCell id="xBQK18J8VFEKR6VTrgml-63" value="+ inPresenza: Bool" style="text;strokeColor=none;fillColor=none;align=left;verticalAlign=top;spacingLeft=4;spacingRight=4;overflow=hidden;rotatable=0;points=[[0,0.5],[1,0.5]];portConstraint=eastwest;whiteSpace=wrap;html=1;" parent="xBQK18J8VFEKR6VTrgml-62" vertex="1">
          <mxGeometry y="52" width="161" height="26" as="geometry" />
        </mxCell>
        <mxCell id="xBQK18J8VFEKR6VTrgml-65" value="+ data: Date" style="text;strokeColor=none;fillColor=none;align=left;verticalAlign=top;spacingLeft=4;spacingRight=4;overflow=hidden;rotatable=0;points=[[0,0.5],[1,0.5]];portConstraint=eastwest;whiteSpace=wrap;html=1;" parent="xBQK18J8VFEKR6VTrgml-62" vertex="1">
          <mxGeometry y="78" width="161" height="26" as="geometry" />
        </mxCell>
        <mxCell id="xBQK18J8VFEKR6VTrgml-66" value="+ numeroSessione: Integer" style="text;strokeColor=none;fillColor=none;align=left;verticalAlign=top;spacingLeft=4;spacingRight=4;overflow=hidden;rotatable=0;points=[[0,0.5],[1,0.5]];portConstraint=eastwest;whiteSpace=wrap;html=1;" parent="xBQK18J8VFEKR6VTrgml-62" vertex="1">
          <mxGeometry y="104" width="161" height="26" as="geometry" />
        </mxCell>
        <mxCell id="CL9pBM8qHt1cgwt5Hpmu-2" value="+ URL: String" style="text;strokeColor=none;fillColor=none;align=left;verticalAlign=top;spacingLeft=4;spacingRight=4;overflow=hidden;rotatable=0;points=[[0,0.5],[1,0.5]];portConstraint=eastwest;whiteSpace=wrap;html=1;" parent="xBQK18J8VFEKR6VTrgml-62" vertex="1">
          <mxGeometry y="130" width="161" height="26" as="geometry" />
        </mxCell>
        <mxCell id="xBQK18J8VFEKR6VTrgml-71" value="+ IDCorso: Integer" style="text;strokeColor=none;fillColor=none;align=left;verticalAlign=top;spacingLeft=4;spacingRight=4;overflow=hidden;rotatable=0;points=[[0,0.5],[1,0.5]];portConstraint=eastwest;whiteSpace=wrap;html=1;" parent="xBQK18J8VFEKR6VTrgml-62" vertex="1">
          <mxGeometry y="156" width="161" height="26" as="geometry" />
        </mxCell>
        <mxCell id="xBQK18J8VFEKR6VTrgml-68" value="Suddivisione" style="text;html=1;align=center;verticalAlign=middle;resizable=0;points=[];autosize=1;strokeColor=none;fillColor=none;" parent="1" vertex="1">
          <mxGeometry x="439" y="360" width="90" height="30" as="geometry" />
        </mxCell>
        <mxCell id="xBQK18J8VFEKR6VTrgml-69" value="1..*" style="text;html=1;align=center;verticalAlign=middle;resizable=0;points=[];autosize=1;strokeColor=none;fillColor=none;" parent="1" vertex="1">
          <mxGeometry x="489" y="438" width="40" height="30" as="geometry" />
        </mxCell>
        <mxCell id="xBQK18J8VFEKR6VTrgml-70" value="1" style="text;html=1;align=center;verticalAlign=middle;resizable=0;points=[];autosize=1;strokeColor=none;fillColor=none;" parent="1" vertex="1">
          <mxGeometry x="393" y="252" width="30" height="30" as="geometry" />
        </mxCell>
        <mxCell id="xBQK18J8VFEKR6VTrgml-82" value="Iscrizione" style="text;html=1;align=center;verticalAlign=middle;resizable=0;points=[];autosize=1;strokeColor=none;fillColor=none;" parent="1" vertex="1">
          <mxGeometry x="49" y="351" width="70" height="30" as="geometry" />
        </mxCell>
        <mxCell id="xBQK18J8VFEKR6VTrgml-83" value="&lt;b&gt;Iscrizione&lt;/b&gt;" style="swimlane;fontStyle=0;childLayout=stackLayout;horizontal=1;startSize=26;fillColor=none;horizontalStack=0;resizeParent=1;resizeParentMax=0;resizeLast=0;collapsible=1;marginBottom=0;whiteSpace=wrap;html=1;" parent="1" vertex="1">
          <mxGeometry x="228" y="346" width="70" height="40" as="geometry" />
        </mxCell>
        <mxCell id="xBQK18J8VFEKR6VTrgml-87" value="" style="endArrow=none;dashed=1;html=1;rounded=0;" parent="1" source="xBQK18J8VFEKR6VTrgml-82" target="xBQK18J8VFEKR6VTrgml-83" edge="1">
          <mxGeometry width="50" height="50" relative="1" as="geometry">
            <mxPoint x="349" y="410" as="sourcePoint" />
            <mxPoint x="399" y="360" as="targetPoint" />
          </mxGeometry>
        </mxCell>
        <mxCell id="xBQK18J8VFEKR6VTrgml-90" style="edgeStyle=orthogonalEdgeStyle;rounded=0;orthogonalLoop=1;jettySize=auto;html=1;endArrow=none" parent="1" source="xBQK18J8VFEKR6VTrgml-61" target="xBQK18J8VFEKR6VTrgml-62" edge="1">
          <mxGeometry relative="1" as="geometry" />
        </mxCell>
        <mxCell id="xBQK18J8VFEKR6VTrgml-91" value="Partecipazione" style="text;html=1;align=center;verticalAlign=middle;resizable=0;points=[];autosize=1;strokeColor=none;fillColor=none;" parent="1" vertex="1">
          <mxGeometry x="273" y="560" width="100" height="30" as="geometry" />
        </mxCell>
        <mxCell id="xBQK18J8VFEKR6VTrgml-92" value="&lt;b&gt;Partecipazione&lt;/b&gt;" style="swimlane;fontStyle=0;childLayout=stackLayout;horizontal=1;startSize=26;fillColor=none;horizontalStack=0;resizeParent=1;resizeParentMax=0;resizeLast=0;collapsible=1;marginBottom=0;whiteSpace=wrap;html=1;" parent="1" vertex="1">
          <mxGeometry x="243" y="438" width="160" height="52" as="geometry" />
        </mxCell>
        <mxCell id="CL9pBM8qHt1cgwt5Hpmu-1" value="+ dataPartecipazione: Date" style="text;strokeColor=none;fillColor=none;align=left;verticalAlign=top;spacingLeft=4;spacingRight=4;overflow=hidden;rotatable=0;points=[[0,0.5],[1,0.5]];portConstraint=eastwest;whiteSpace=wrap;html=1;" parent="xBQK18J8VFEKR6VTrgml-92" vertex="1">
          <mxGeometry y="26" width="160" height="26" as="geometry" />
        </mxCell>
        <mxCell id="xBQK18J8VFEKR6VTrgml-96" value="" style="endArrow=none;dashed=1;html=1;rounded=0;" parent="1" source="xBQK18J8VFEKR6VTrgml-92" target="xBQK18J8VFEKR6VTrgml-91" edge="1">
          <mxGeometry width="50" height="50" relative="1" as="geometry">
            <mxPoint x="449" y="410" as="sourcePoint" />
            <mxPoint x="499" y="360" as="targetPoint" />
          </mxGeometry>
        </mxCell>
        <mxCell id="xBQK18J8VFEKR6VTrgml-97" value="0..*" style="text;html=1;align=center;verticalAlign=middle;resizable=0;points=[];autosize=1;strokeColor=none;fillColor=none;" parent="1" vertex="1">
          <mxGeometry x="408" y="530" width="40" height="30" as="geometry" />
        </mxCell>
        <mxCell id="xBQK18J8VFEKR6VTrgml-98" value="0..*" style="text;html=1;align=center;verticalAlign=middle;resizable=0;points=[];autosize=1;strokeColor=none;fillColor=none;" parent="1" vertex="1">
          <mxGeometry x="189" y="530" width="40" height="30" as="geometry" />
        </mxCell>
        <mxCell id="xBQK18J8VFEKR6VTrgml-100" value="&lt;b&gt;Ricetta&lt;/b&gt;" style="swimlane;fontStyle=0;childLayout=stackLayout;horizontal=1;startSize=26;fillColor=none;horizontalStack=0;resizeParent=1;resizeParentMax=0;resizeLast=0;collapsible=1;marginBottom=0;whiteSpace=wrap;html=1;" parent="1" vertex="1">
          <mxGeometry x="459" y="800" width="140" height="78" as="geometry" />
        </mxCell>
        <mxCell id="xBQK18J8VFEKR6VTrgml-101" value="+ IDRicetta: Integer" style="text;strokeColor=none;fillColor=none;align=left;verticalAlign=top;spacingLeft=4;spacingRight=4;overflow=hidden;rotatable=0;points=[[0,0.5],[1,0.5]];portConstraint=eastwest;whiteSpace=wrap;html=1;" parent="xBQK18J8VFEKR6VTrgml-100" vertex="1">
          <mxGeometry y="26" width="140" height="26" as="geometry" />
        </mxCell>
        <mxCell id="xBQK18J8VFEKR6VTrgml-102" value="+ nome: String" style="text;strokeColor=none;fillColor=none;align=left;verticalAlign=top;spacingLeft=4;spacingRight=4;overflow=hidden;rotatable=0;points=[[0,0.5],[1,0.5]];portConstraint=eastwest;whiteSpace=wrap;html=1;" parent="xBQK18J8VFEKR6VTrgml-100" vertex="1">
          <mxGeometry y="52" width="140" height="26" as="geometry" />
        </mxCell>
        <mxCell id="xBQK18J8VFEKR6VTrgml-104" value="" style="endArrow=none;html=1;rounded=0;" parent="1" source="xBQK18J8VFEKR6VTrgml-100" target="xBQK18J8VFEKR6VTrgml-62" edge="1">
          <mxGeometry width="50" height="50" relative="1" as="geometry">
            <mxPoint x="469" y="750" as="sourcePoint" />
            <mxPoint x="519" y="700" as="targetPoint" />
          </mxGeometry>
        </mxCell>
        <mxCell id="xBQK18J8VFEKR6VTrgml-105" value="Realizzazione" style="text;html=1;align=center;verticalAlign=middle;resizable=0;points=[];autosize=1;strokeColor=none;fillColor=none;" parent="1" vertex="1">
          <mxGeometry x="529" y="700" width="100" height="30" as="geometry" />
        </mxCell>
        <mxCell id="xBQK18J8VFEKR6VTrgml-106" value="&lt;b&gt;RealizzazioneRicetta&lt;/b&gt;" style="swimlane;fontStyle=0;childLayout=stackLayout;horizontal=1;startSize=26;fillColor=none;horizontalStack=0;resizeParent=1;resizeParentMax=0;resizeLast=0;collapsible=1;marginBottom=0;whiteSpace=wrap;html=1;" parent="1" vertex="1">
          <mxGeometry x="283" y="694.5" width="140" height="41" as="geometry" />
        </mxCell>
        <mxCell id="xBQK18J8VFEKR6VTrgml-110" value="" style="endArrow=none;dashed=1;html=1;rounded=0;" parent="1" source="xBQK18J8VFEKR6VTrgml-106" target="xBQK18J8VFEKR6VTrgml-105" edge="1">
          <mxGeometry width="50" height="50" relative="1" as="geometry">
            <mxPoint x="469" y="750" as="sourcePoint" />
            <mxPoint x="519" y="700" as="targetPoint" />
          </mxGeometry>
        </mxCell>
        <mxCell id="xBQK18J8VFEKR6VTrgml-111" value="1..*" style="text;html=1;align=center;verticalAlign=middle;resizable=0;points=[];autosize=1;strokeColor=none;fillColor=none;" parent="1" vertex="1">
          <mxGeometry x="489" y="770" width="40" height="30" as="geometry" />
        </mxCell>
        <mxCell id="xBQK18J8VFEKR6VTrgml-112" value="0..*" style="text;html=1;align=center;verticalAlign=middle;resizable=0;points=[];autosize=1;strokeColor=none;fillColor=none;" parent="1" vertex="1">
          <mxGeometry x="489" y="652" width="40" height="30" as="geometry" />
        </mxCell>
        <mxCell id="xBQK18J8VFEKR6VTrgml-113" value="&lt;b&gt;Ingrediente&lt;/b&gt;" style="swimlane;fontStyle=0;childLayout=stackLayout;horizontal=1;startSize=26;fillColor=none;horizontalStack=0;resizeParent=1;resizeParentMax=0;resizeLast=0;collapsible=1;marginBottom=0;whiteSpace=wrap;html=1;" parent="1" vertex="1">
          <mxGeometry x="49" y="800" width="140" height="78" as="geometry" />
        </mxCell>
        <mxCell id="xBQK18J8VFEKR6VTrgml-114" value="+ IDIngrediente: Integer" style="text;strokeColor=none;fillColor=none;align=left;verticalAlign=top;spacingLeft=4;spacingRight=4;overflow=hidden;rotatable=0;points=[[0,0.5],[1,0.5]];portConstraint=eastwest;whiteSpace=wrap;html=1;" parent="xBQK18J8VFEKR6VTrgml-113" vertex="1">
          <mxGeometry y="26" width="140" height="26" as="geometry" />
        </mxCell>
        <mxCell id="xBQK18J8VFEKR6VTrgml-115" value="+ nome: String" style="text;strokeColor=none;fillColor=none;align=left;verticalAlign=top;spacingLeft=4;spacingRight=4;overflow=hidden;rotatable=0;points=[[0,0.5],[1,0.5]];portConstraint=eastwest;whiteSpace=wrap;html=1;" parent="xBQK18J8VFEKR6VTrgml-113" vertex="1">
          <mxGeometry y="52" width="140" height="26" as="geometry" />
        </mxCell>
        <mxCell id="xBQK18J8VFEKR6VTrgml-117" value="" style="endArrow=none;html=1;rounded=0;" parent="1" source="xBQK18J8VFEKR6VTrgml-113" target="xBQK18J8VFEKR6VTrgml-100" edge="1">
          <mxGeometry width="50" height="50" relative="1" as="geometry">
            <mxPoint x="369" y="750" as="sourcePoint" />
            <mxPoint x="419" y="700" as="targetPoint" />
          </mxGeometry>
        </mxCell>
        <mxCell id="xBQK18J8VFEKR6VTrgml-119" value="0..*" style="text;html=1;align=center;verticalAlign=middle;resizable=0;points=[];autosize=1;strokeColor=none;fillColor=none;" parent="1" vertex="1">
          <mxGeometry x="419" y="810" width="40" height="30" as="geometry" />
        </mxCell>
        <mxCell id="xBQK18J8VFEKR6VTrgml-120" value="1..*" style="text;html=1;align=center;verticalAlign=middle;resizable=0;points=[];autosize=1;strokeColor=none;fillColor=none;" parent="1" vertex="1">
          <mxGeometry x="199" y="810" width="40" height="30" as="geometry" />
        </mxCell>
        <mxCell id="xBQK18J8VFEKR6VTrgml-121" value="&lt;b&gt;IngredientiUtilizzati&lt;/b&gt;" style="swimlane;fontStyle=0;childLayout=stackLayout;horizontal=1;startSize=26;fillColor=none;horizontalStack=0;resizeParent=1;resizeParentMax=0;resizeLast=0;collapsible=1;marginBottom=0;whiteSpace=wrap;html=1;" parent="1" vertex="1">
          <mxGeometry x="263" y="910" width="140" height="52" as="geometry" />
        </mxCell>
        <mxCell id="xBQK18J8VFEKR6VTrgml-122" value="+ doseGrammi: Integer" style="text;strokeColor=none;fillColor=none;align=left;verticalAlign=top;spacingLeft=4;spacingRight=4;overflow=hidden;rotatable=0;points=[[0,0.5],[1,0.5]];portConstraint=eastwest;whiteSpace=wrap;html=1;" parent="xBQK18J8VFEKR6VTrgml-121" vertex="1">
          <mxGeometry y="26" width="140" height="26" as="geometry" />
        </mxCell>
        <mxCell id="xBQK18J8VFEKR6VTrgml-125" value="Utilizzo" style="text;html=1;align=center;verticalAlign=middle;resizable=0;points=[];autosize=1;strokeColor=none;fillColor=none;" parent="1" vertex="1">
          <mxGeometry x="303" y="810" width="60" height="30" as="geometry" />
        </mxCell>
        <mxCell id="xBQK18J8VFEKR6VTrgml-126" value="" style="endArrow=none;dashed=1;html=1;rounded=0;" parent="1" source="xBQK18J8VFEKR6VTrgml-121" target="xBQK18J8VFEKR6VTrgml-125" edge="1">
          <mxGeometry width="50" height="50" relative="1" as="geometry">
            <mxPoint x="369" y="650" as="sourcePoint" />
            <mxPoint x="419" y="600" as="targetPoint" />
          </mxGeometry>
        </mxCell>
        <mxCell id="08ntAsNZTTR8pFwOwie9-1" value="0..*" style="text;html=1;align=center;verticalAlign=middle;resizable=0;points=[];autosize=1;strokeColor=none;fillColor=none;" parent="1" vertex="1">
          <mxGeometry x="343" y="250" width="40" height="30" as="geometry" />
        </mxCell>
        <mxCell id="08ntAsNZTTR8pFwOwie9-2" value="0..*" style="text;html=1;align=center;verticalAlign=middle;resizable=0;points=[];autosize=1;strokeColor=none;fillColor=none;" parent="1" vertex="1">
          <mxGeometry x="119" y="438" width="40" height="30" as="geometry" />
        </mxCell>
        <mxCell id="HvHEFUx1EMcwbmLvKb15-1" value="Gestione" style="text;html=1;align=center;verticalAlign=middle;resizable=0;points=[];autosize=1;strokeColor=none;fillColor=none;" parent="1" vertex="1">
          <mxGeometry x="228" y="160" width="70" height="30" as="geometry" />
        </mxCell>
      </root>
    </mxGraphModel>
  </diagram>
</mxfile>
